<svg width="21" height="23" viewBox="0 0 21 23" fill="none" xmlns="http://www.w3.org/2000/svg">
<path d="M15.375 19.5H13.375C13.0917 19.5 12.854 19.404 12.662 19.212C12.47 19.02 12.3743 18.7827 12.375 18.5C12.375 18.2167 12.471 17.979 12.663 17.787C12.855 17.595 13.0923 17.4993 13.375 17.5H15.375V15.5C15.375 15.2167 15.471 14.979 15.663 14.787C15.855 14.595 16.0923 14.4993 16.375 14.5C16.6583 14.5 16.896 14.596 17.088 14.788C17.28 14.98 17.3757 15.2173 17.375 15.5V17.5H19.375C19.6583 17.5 19.896 17.596 20.088 17.788C20.28 17.98 20.3757 18.2173 20.375 18.5C20.375 18.7833 20.279 19.021 20.087 19.213C19.895 19.405 19.6577 19.5007 19.375 19.5H17.375V21.5C17.375 21.7833 17.279 22.021 17.087 22.213C16.895 22.405 16.6577 22.5007 16.375 22.5C16.0917 22.5 15.854 22.404 15.662 22.212C15.47 22.02 15.3743 21.7827 15.375 21.5V19.5ZM7.35 2.5C7.06667 2.5 6.83333 2.404 6.65 2.212C6.46667 2.02 6.375 1.78267 6.375 1.5C6.375 1.21667 6.471 0.979003 6.663 0.787003C6.855 0.595003 7.09233 0.499337 7.375 0.500003H11.375C11.6583 0.500003 11.896 0.596003 12.088 0.788003C12.28 0.980003 12.3757 1.21734 12.375 1.5C12.375 1.78334 12.279 2.021 12.087 2.213C11.895 2.405 11.6577 2.50067 11.375 2.5H7.35ZM11.775 14.65L11.525 14.25C11.425 14.0833 11.2833 14 11.1 14C10.9167 14 10.775 14.0833 10.675 14.25L8.65 17.725C8.56667 17.8917 8.56667 18.05 8.65 18.2C8.73333 18.35 8.86667 18.4417 9.05 18.475C9.28333 18.5083 9.50833 18.5167 9.725 18.5C9.94167 18.4833 10.1583 18.4583 10.375 18.425C10.3917 17.7083 10.521 17.029 10.763 16.387C11.005 15.745 11.3423 15.166 11.775 14.65ZM12.5 13.925C12.9 13.5917 13.346 13.3083 13.838 13.075C14.33 12.8417 14.8423 12.675 15.375 12.575L15.325 11.95C15.3083 11.8167 15.2543 11.7083 15.163 11.625C15.0717 11.5417 14.959 11.5 14.825 11.5H11.975C11.7917 11.5 11.646 11.5833 11.538 11.75C11.43 11.9167 11.4257 12.0833 11.525 12.25L12.5 13.925ZM9.375 21.5C8.125 21.5 6.954 21.2623 5.862 20.787C4.77 20.3117 3.81633 19.666 3.001 18.85C2.18367 18.0333 1.54167 17.079 1.075 15.987C0.608333 14.895 0.375 13.7327 0.375 12.5C0.375 11.2667 0.612667 10.104 1.088 9.012C1.56333 7.92 2.209 6.966 3.025 6.15C3.84167 5.33334 4.796 4.68734 5.888 4.212C6.98 3.73667 8.14233 3.49934 9.375 3.5C10.425 3.5 11.425 3.675 12.375 4.025C13.325 4.375 14.1917 4.86667 14.975 5.5L15.725 4.75C15.9083 4.56667 16.1377 4.47067 16.413 4.462C16.6883 4.45334 16.9257 4.54934 17.125 4.75C17.3083 4.93334 17.4043 5.16267 17.413 5.438C17.4217 5.71334 17.334 5.95067 17.15 6.15L16.425 6.9C17.0583 7.71667 17.55 8.62934 17.9 9.638C18.25 10.6467 18.4083 11.709 18.375 12.825C18.1417 12.7417 17.8457 12.6667 17.487 12.6C17.1283 12.5333 16.7577 12.5 16.375 12.5C16.375 10.5667 15.6917 8.91667 14.325 7.55C12.9583 6.18334 11.3083 5.5 9.375 5.5C7.425 5.5 5.77067 6.17934 4.412 7.538C3.05333 8.89667 2.37433 10.5507 2.375 12.5C2.375 14.45 3.05433 16.1043 4.413 17.463C5.77167 18.8217 7.42567 19.5007 9.375 19.5C9.55833 19.5 9.73333 19.4957 9.9 19.487C10.0667 19.4783 10.2417 19.4577 10.425 19.425C10.475 19.7583 10.5543 20.0877 10.663 20.413C10.7717 20.7383 10.909 21.0507 11.075 21.35C10.7917 21.4 10.5083 21.4377 10.225 21.463C9.94167 21.4883 9.65833 21.5007 9.375 21.5ZM10.25 10.5H14.3C14.4833 10.5 14.621 10.429 14.713 10.287C14.805 10.145 14.8173 9.99934 14.75 9.85C14.45 9.23334 14.0417 8.67934 13.525 8.188C13.0083 7.69667 12.4583 7.309 11.875 7.025C11.7583 6.975 11.6417 6.97067 11.525 7.012C11.4083 7.05334 11.3167 7.13267 11.25 7.25L9.8 9.75C9.7 9.91667 9.70433 10.0833 9.813 10.25C9.92167 10.4167 10.0673 10.5 10.25 10.5ZM8.075 10.75L10.125 7.2C10.2083 7.06667 10.2127 6.925 10.138 6.775C10.0633 6.625 9.94233 6.53334 9.775 6.5C9.10833 6.45 8.44167 6.525 7.775 6.725C7.10833 6.925 6.48333 7.21667 5.9 7.6C5.8 7.68334 5.73733 7.78334 5.712 7.9C5.68667 8.01667 5.70767 8.13334 5.775 8.25L7.225 10.75C7.325 10.9167 7.46667 11 7.65 11C7.83333 11 7.975 10.9167 8.075 10.75ZM6.775 13.5C6.95833 13.5 7.104 13.4167 7.212 13.25C7.32 13.0833 7.32433 12.9167 7.225 12.75L5.175 9.2C5.09167 9.05 4.96667 8.97067 4.8 8.962C4.63333 8.95334 4.5 9.016 4.4 9.15C4.01667 9.7 3.73733 10.3207 3.562 11.012C3.38667 11.7033 3.341 12.3827 3.425 13.05C3.44167 13.1833 3.496 13.2917 3.588 13.375C3.68 13.4583 3.79233 13.5 3.925 13.5H6.775ZM8.95 15.25C9.05 15.0833 9.04567 14.9167 8.937 14.75C8.82833 14.5833 8.68267 14.5 8.5 14.5H4.425C4.25833 14.5 4.12933 14.571 4.038 14.713C3.94667 14.855 3.934 15.0007 4 15.15C4.3 15.75 4.70833 16.296 5.225 16.788C5.74167 17.28 6.29167 17.6673 6.875 17.95C6.99167 18 7.10833 18.0083 7.225 17.975C7.34167 17.9417 7.43333 17.8667 7.5 17.75L8.95 15.25Z" fill="#8F95AB"/>
</svg>
