<svg width="21" height="17" viewBox="0 0 21 17" fill="none" xmlns="http://www.w3.org/2000/svg">
<path d="M14.67 8.98074e-09C14.9947 -3.07559e-05 15.3145 0.0789812 15.6018 0.23021C15.8891 0.381439 16.1352 0.600339 16.319 0.868L16.406 1.008L19.986 7.273C20.1297 7.52456 20.2171 7.80435 20.242 8.093L20.25 8.266V12.764C20.25 13.012 20.2039 13.2579 20.114 13.489L20.039 13.659L18.921 15.894C18.7672 16.2019 18.5366 16.465 18.2514 16.6577C17.9662 16.8504 17.6361 16.9662 17.293 16.994L17.132 17H15.25C14.7454 17.0002 14.2594 16.8096 13.8895 16.4665C13.5195 16.1234 13.2928 15.6532 13.255 15.15L13.25 15H7.25C7.25016 15.5046 7.05959 15.9906 6.7165 16.3605C6.37341 16.7305 5.90316 16.9572 5.4 16.995L5.25 17H3.368C3.02414 16.9999 2.68613 16.9111 2.38659 16.7422C2.08706 16.5734 1.83612 16.3301 1.658 16.036L1.579 15.894L0.461 13.658C0.350315 13.4362 0.281818 13.1958 0.259 12.949L0.25 12.764V8.266C0.249991 7.97664 0.312769 7.69073 0.434 7.428L0.514 7.273L4.094 1.008C4.25509 0.726076 4.48239 0.487611 4.75628 0.313209C5.03017 0.138806 5.3424 0.0337096 5.666 0.00699998L5.83 8.98074e-09H14.67ZM14.67 2H5.83L2.25 8.266V12.764L3.368 15H5.25V14.1C5.24986 13.8289 5.34981 13.5674 5.53067 13.3655C5.71152 13.1636 5.96056 13.0356 6.23 13.006L6.35 13H14.15C14.4211 12.9999 14.6826 13.0998 14.8845 13.2807C15.0864 13.4615 15.2144 13.7106 15.244 13.98L15.25 14.1V15H17.132L18.25 12.764V8.266L14.67 2ZM14.804 7.105C15.0411 6.98697 15.3154 6.96785 15.5667 7.05184C15.8179 7.13583 16.0255 7.31607 16.144 7.553C16.26 7.79079 16.278 8.0646 16.1942 8.31555C16.1105 8.5665 15.9316 8.77456 15.696 8.895C14.052 9.715 12.06 10 10.25 10C8.404 10 6.48 9.718 4.808 8.897C4.57252 8.77591 4.39355 8.56774 4.30915 8.31676C4.22474 8.06578 4.24155 7.79178 4.356 7.553C4.46774 7.33452 4.65535 7.16431 4.88364 7.07428C5.11192 6.98426 5.36521 6.9806 5.596 7.064L5.863 7.179L6.107 7.276L6.326 7.356L6.586 7.442L6.888 7.534L7.228 7.625L7.605 7.715L8.016 7.797C8.75301 7.93197 9.50073 7.99991 10.25 8C11.766 8 13.418 7.768 14.804 7.105Z" fill="#8F95AB"/>
</svg>
