<svg width="24" height="28" viewBox="0 0 24 28" fill="none" xmlns="http://www.w3.org/2000/svg">
<path d="M19.0682 14.7918C19.0276 11.5012 21.7495 9.91683 21.8714 9.83558C20.3276 7.60121 17.9307 7.27621 17.1182 7.27621C15.1276 7.07308 13.1776 8.49496 12.162 8.49496C11.1057 8.49496 9.56199 7.31683 7.85574 7.35746C5.66199 7.39808 3.63074 8.65746 2.53387 10.6075C0.218243 14.5887 1.96512 20.4793 4.15887 23.7293C5.25574 25.3137 6.55574 27.0606 8.26199 27.02C9.92762 26.9387 10.537 25.9637 12.5276 25.9637C14.5182 25.9637 15.087 27.02 16.7932 26.9793C18.5807 26.9387 19.6776 25.395 20.7339 23.8106C21.9932 21.9825 22.5214 20.195 22.562 20.1137C22.5214 20.0325 19.1089 18.7325 19.0682 14.7918Z" fill="#0A0D14"/>
<path d="M15.8182 5.16362C16.712 4.06675 17.3213 2.523 17.1588 0.979248C15.8588 1.01987 14.2745 1.873 13.3401 2.96987C12.5276 3.94487 11.7963 5.48862 11.9588 6.99175C13.4213 7.073 14.8838 6.2605 15.8182 5.16362Z" fill="#0A0D14"/>
</svg>
