<svg width="21" height="16" viewBox="0 0 21 16" fill="none" xmlns="http://www.w3.org/2000/svg">
<path fill-rule="evenodd" clip-rule="evenodd" d="M12.0264 9.64156C12.2033 9.60969 12.3827 9.59369 12.5625 9.59375C12.9405 9.59375 13.3022 9.66369 13.6354 9.79128L14.961 7.90625L15.0116 7.93494C14.5202 7.38579 14.2489 6.67444 14.25 5.9375C14.25 4.28066 15.5932 2.9375 17.25 2.9375C18.9068 2.9375 20.25 4.28066 20.25 5.9375C20.25 7.59434 18.9068 8.9375 17.25 8.9375C16.9058 8.9375 16.575 8.87947 16.267 8.77278L14.9255 10.7451C15.3392 11.2724 15.5636 11.9235 15.5625 12.5938C15.5625 14.2506 14.2193 15.5938 12.5625 15.5938C10.9057 15.5938 9.5625 14.2506 9.5625 12.5938C9.5625 11.6781 9.97275 10.8582 10.6194 10.3079L8.67281 6.43794C8.47202 6.47933 8.26752 6.50013 8.0625 6.5C7.80433 6.50019 7.54721 6.4671 7.2975 6.40156L5.91788 8.8325C6.48844 9.37859 6.84375 10.1478 6.84375 11C6.84375 12.6568 5.50059 14 3.84375 14C2.18691 14 0.84375 12.6568 0.84375 11C0.84375 9.34316 2.18691 8 3.84375 8C4.09266 8 4.33444 8.03028 4.56562 8.08738L5.95397 5.63394C5.40356 5.09028 5.0625 4.33503 5.0625 3.5C5.0625 1.84316 6.40566 0.5 8.0625 0.5C9.71934 0.5 11.0625 1.84316 11.0625 3.5C11.0625 4.39653 10.6692 5.20119 10.0459 5.75094L12.0264 9.64156ZM17.25 7.4375C18.0785 7.4375 18.75 6.76597 18.75 5.9375C18.75 5.10903 18.0785 4.4375 17.25 4.4375C16.4215 4.4375 15.75 5.10903 15.75 5.9375C15.75 6.76597 16.4215 7.4375 17.25 7.4375ZM3.84375 12.5C4.67222 12.5 5.34375 11.8285 5.34375 11C5.34375 10.1715 4.67222 9.5 3.84375 9.5C3.01528 9.5 2.34375 10.1715 2.34375 11C2.34375 11.8285 3.01528 12.5 3.84375 12.5ZM8.0625 5C8.89097 5 9.5625 4.32847 9.5625 3.5C9.5625 2.67153 8.89097 2 8.0625 2C7.23403 2 6.5625 2.67153 6.5625 3.5C6.5625 4.32847 7.23403 5 8.0625 5ZM12.5625 14.0938C13.391 14.0938 14.0625 13.4222 14.0625 12.5938C14.0625 11.7653 13.391 11.0938 12.5625 11.0938C11.734 11.0938 11.0625 11.7653 11.0625 12.5938C11.0625 13.4222 11.734 14.0938 12.5625 14.0938Z" fill="#8F95AB"/>
</svg>
