<svg width="24" height="20" viewBox="0 0 24 20" fill="none" xmlns="http://www.w3.org/2000/svg">
<path d="M11.8484 0.694797C9.05309 0.653757 5.17013 0.713757 4.37069 2.86128L2.40653 7.47024C2.31941 7.37058 2.20516 7.29844 2.07773 7.26264L1.28693 7.04016C1.19997 7.0155 1.10901 7.00826 1.01924 7.01885C0.929483 7.02945 0.842697 7.05766 0.763869 7.10188C0.685041 7.1461 0.615722 7.20545 0.559891 7.27653C0.504061 7.34761 0.462818 7.42902 0.438531 7.51608L0.0259706 8.98104C0.00135038 9.06798 -0.00586164 9.15892 0.00474824 9.24866C0.0153581 9.33839 0.0435811 9.42515 0.0877981 9.50395C0.132015 9.58275 0.191356 9.65204 0.262416 9.70786C0.333476 9.76367 0.414857 9.80491 0.501891 9.8292L1.29293 10.0519C1.31933 10.0591 1.34573 10.0615 1.37213 10.0658C1.22093 10.4426 1.12685 10.8569 1.12685 11.1034V16.4602C1.12685 16.7347 1.24205 16.8619 1.42493 16.9214V18.3485C1.42465 18.4752 1.44939 18.6007 1.49774 18.7178C1.54609 18.8348 1.61709 18.9412 1.70667 19.0308C1.79625 19.1204 1.90264 19.1914 2.01974 19.2398C2.13683 19.2881 2.26233 19.3128 2.38901 19.3126H4.97549C5.10218 19.3128 5.22767 19.2881 5.34476 19.2398C5.46186 19.1914 5.56825 19.1204 5.65783 19.0308C5.74741 18.9412 5.81842 18.8348 5.86676 18.7178C5.91511 18.6007 5.93986 18.4752 5.93957 18.3485V16.9738H18.0603V18.3485C18.0601 18.4752 18.0849 18.6006 18.1332 18.7177C18.1816 18.8348 18.2527 18.9412 18.3423 19.0308C18.4318 19.1203 18.5382 19.1913 18.6553 19.2397C18.7724 19.288 18.8979 19.3128 19.0246 19.3126H21.6106C21.7373 19.3128 21.8628 19.2881 21.98 19.2398C22.0971 19.1914 22.2035 19.1204 22.2931 19.0308C22.3827 18.9413 22.4538 18.8349 22.5022 18.7178C22.5506 18.6007 22.5754 18.4752 22.5752 18.3485V16.9217C22.7583 16.8622 22.8728 16.735 22.8728 16.4604V11.1036C22.8728 10.8571 22.7785 10.4429 22.6275 10.0661C22.6539 10.062 22.6803 10.0596 22.7067 10.0522L23.498 9.82944C23.585 9.80512 23.6663 9.76387 23.7374 9.70804C23.8084 9.65222 23.8677 9.58292 23.9119 9.50412C23.9561 9.42532 23.9843 9.33858 23.9949 9.24885C24.0055 9.15913 23.9983 9.0682 23.9737 8.98128L23.5616 7.51632C23.5373 7.42925 23.496 7.34784 23.4401 7.27676C23.3843 7.20567 23.3149 7.14632 23.2361 7.1021C23.1572 7.05789 23.0704 7.02967 22.9807 7.01908C22.8909 7.00849 22.7999 7.01574 22.7129 7.0404L21.9221 7.26288C21.7947 7.29883 21.6804 7.37094 21.5931 7.47048L19.6289 2.86152C18.7721 0.681357 14.6434 0.736077 11.8481 0.695037L11.8484 0.694797ZM19.8541 7.76136C19.9006 7.8996 19.7614 7.99176 19.6157 8.00016C19.6157 8.00016 19.1396 8.04048 18.4829 8.09352C17.9833 6.92616 16.8221 6.10344 15.4769 6.10344C14.0007 6.10344 12.7474 7.09464 12.3454 8.4444C12.2341 8.44584 12.1047 8.45064 12.0013 8.45064C9.45797 8.45064 4.38389 8.00016 4.38389 8.00016C4.23845 7.99152 4.09901 7.89936 4.14557 7.76136C6.09965 1.80432 6.15797 2.25216 11.8918 2.3148C17.6254 2.3772 17.6588 1.95168 19.8541 7.76136ZM15.4769 7.22928C15.8309 7.22805 16.1797 7.31497 16.4917 7.48219C16.8037 7.6494 17.0692 7.89166 17.2642 8.18712C16.1158 8.27232 14.7941 8.35944 13.5625 8.41008C13.7397 8.05429 14.0129 7.75516 14.3512 7.5465C14.6895 7.33784 15.0794 7.22796 15.4769 7.22928ZM2.25749 9.16248C2.27477 9.18816 2.29157 9.21384 2.31077 9.23856H2.23637L2.25749 9.16248ZM3.52805 10.6586C4.03109 10.6505 6.73157 11.5594 6.73157 11.5594C7.06877 11.6544 7.36565 12.2918 7.36397 12.6422C7.35893 13.8223 4.31381 13.4126 3.07757 13.4174C2.9945 13.4176 2.91221 13.4014 2.83543 13.3696C2.75865 13.3379 2.68888 13.2914 2.63013 13.2326C2.57138 13.1739 2.5248 13.1042 2.49306 13.0274C2.46132 12.9506 2.44504 12.8683 2.44517 12.7853V11.2913C2.44517 10.9409 3.02501 10.6673 3.52805 10.6586ZM20.4716 10.6586C20.9746 10.667 21.5545 10.9409 21.5545 11.2913V12.7853C21.5546 12.8684 21.5384 12.9507 21.5066 13.0275C21.4749 13.1043 21.4283 13.174 21.3696 13.2328C21.3108 13.2916 21.241 13.3381 21.1642 13.3699C21.0875 13.4016 21.0051 13.4178 20.9221 13.4177C19.6861 13.4129 16.6407 13.8223 16.6357 12.6422C16.634 12.2918 16.9309 11.6544 17.2681 11.5594C17.2681 11.5594 19.9685 10.6505 20.4716 10.6586Z" fill="#3287FF"/>
</svg>
