<svg width="21" height="14" viewBox="0 0 21 14" fill="none" xmlns="http://www.w3.org/2000/svg">
<path d="M15.125 6H17.125C17.6554 6 18.1641 6.21071 18.5392 6.58579C18.9143 6.96086 19.125 7.46957 19.125 8V10C19.125 10.2652 19.0196 10.5196 18.8321 10.7071C18.6446 10.8946 18.3902 11 18.125 11H16.625M15.125 6H8.625M15.125 6L12.708 1.971C12.5303 1.67485 12.2789 1.42976 11.9784 1.25959C11.6779 1.08943 11.3384 0.999997 10.993 1H8.625M16.625 11C16.625 11.5304 16.4143 12.0391 16.0392 12.4142C15.6641 12.7893 15.1554 13 14.625 13C14.0946 13 13.5859 12.7893 13.2108 12.4142C12.8357 12.0391 12.625 11.5304 12.625 11M16.625 11C16.625 10.4696 16.4143 9.96086 16.0392 9.58579C15.6641 9.21071 15.1554 9 14.625 9C14.0946 9 13.5859 9.21071 13.2108 9.58579C12.8357 9.96086 12.625 10.4696 12.625 11M8.625 6V1M8.625 6H3.125M8.625 1H5.765C5.30247 0.999817 4.85418 1.15995 4.49644 1.45314C4.13871 1.74633 3.89366 2.15444 3.803 2.608L3.125 6M3.125 6C2.59457 6 2.08586 6.21071 1.71079 6.58579C1.33571 6.96086 1.125 7.46957 1.125 8V10C1.125 10.2652 1.23036 10.5196 1.41789 10.7071C1.60543 10.8946 1.85978 11 2.125 11H3.625M3.625 11C3.625 11.5304 3.83571 12.0391 4.21079 12.4142C4.58586 12.7893 5.09457 13 5.625 13C6.15543 13 6.66414 12.7893 7.03921 12.4142C7.41429 12.0391 7.625 11.5304 7.625 11M3.625 11C3.625 10.4696 3.83571 9.96086 4.21079 9.58579C4.58586 9.21071 5.09457 9 5.625 9C6.15543 9 6.66414 9.21071 7.03921 9.58579C7.41429 9.96086 7.625 10.4696 7.625 11M7.625 11H12.625" stroke="#B5BBCF" stroke-width="2" stroke-linecap="round" stroke-linejoin="round"/>
</svg>
