<svg width="23" height="6" viewBox="0 0 23 6" fill="none" xmlns="http://www.w3.org/2000/svg">
<path d="M16.3112 4.69918C16.3111 4.92931 16.3793 5.15429 16.507 5.34568C16.6348 5.53707 16.8165 5.68626 17.0291 5.77439C17.2417 5.86252 17.4756 5.88563 17.7013 5.84079C17.927 5.79595 18.1344 5.68518 18.2971 5.52249C18.4599 5.3598 18.5707 5.1525 18.6157 4.9268C18.6606 4.7011 18.6376 4.46715 18.5496 4.25453C18.4615 4.04192 18.3124 3.86018 18.121 3.73232C17.9297 3.60446 17.7048 3.53622 17.4746 3.53622C17.1662 3.53646 16.8705 3.65906 16.6524 3.87709C16.4343 4.09512 16.3116 4.39078 16.3112 4.69918ZM4.45182 3.53622C4.68181 3.53631 4.90661 3.60459 5.0978 3.73244C5.28899 3.86028 5.43797 4.04195 5.52593 4.25446C5.61388 4.46697 5.63684 4.70079 5.59191 4.92636C5.54699 5.15192 5.43619 5.3591 5.27353 5.52169C5.11086 5.68429 4.90364 5.79501 4.67806 5.83984C4.45248 5.88468 4.21867 5.86162 4.00619 5.77358C3.79371 5.68555 3.61211 5.53649 3.48434 5.34525C3.35657 5.15401 3.28838 4.92918 3.28838 4.69918C3.28875 4.39086 3.4114 4.09527 3.62942 3.87725C3.84743 3.65923 4.14302 3.53659 4.45135 3.53622H4.45182ZM0.85791 0.183716H4.01025L3.37229 2.49372L7.68479 0.136841H10.3735L10.4326 1.76247L11.9326 2.45434L12.4829 1.77747H13.2151L13.3632 2.52747C19.8113 1.91809 22.3918 3.89481 22.3918 3.89481C22.3918 3.89481 22.0393 4.12919 21.1763 4.28809C20.9945 4.44325 21.0048 4.96497 21.0048 4.96497H22.1392V5.71497H19.7017V4.42684C19.6154 4.43012 19.4931 4.44606 19.3707 4.44887C19.3345 4.17455 19.2392 3.91135 19.0915 3.67743C18.9437 3.4435 18.7469 3.24442 18.5147 3.09392C18.2825 2.94342 18.0204 2.84508 17.7466 2.80568C17.4727 2.76629 17.1935 2.78678 16.9283 2.86573C16.6631 2.94469 16.4182 3.08024 16.2105 3.26302C16.0028 3.44581 15.8372 3.67148 15.7251 3.92448C15.6131 4.17747 15.5572 4.45176 15.5615 4.72843C15.5657 5.0051 15.6299 5.27755 15.7496 5.527H6.17588C6.30002 5.26803 6.36427 4.98443 6.36384 4.69725C6.36342 4.41006 6.29835 4.12666 6.17344 3.86806C6.04853 3.60946 5.86701 3.3823 5.64232 3.20343C5.41764 3.02456 5.15557 2.89858 4.87555 2.83483C4.59553 2.77107 4.30475 2.77118 4.02478 2.83515C3.74481 2.89912 3.48283 3.02531 3.25829 3.20434C3.03374 3.38338 2.85239 3.61068 2.72768 3.86938C2.60297 4.12807 2.53811 4.41153 2.53791 4.69872C2.53791 4.75684 2.54072 4.81403 2.54588 4.87075H0.858379L0.85791 0.183716Z" fill="#B5BBCF"/>
</svg>
