<svg width="24" height="24" viewBox="0 0 24 24" fill="none" xmlns="http://www.w3.org/2000/svg">
<path fill-rule="evenodd" clip-rule="evenodd" d="M6.68803 16.9576C7.22538 17.6746 7.88227 18.2549 8.65871 18.6985C9.73933 19.316 10.9964 19.6248 12.4299 19.6248C14.1941 19.6248 15.6387 19.1617 16.7634 18.2354C17.8881 17.2871 18.6269 15.9749 18.9798 14.2989H11.0405V10.7593H23.5448V14.7951C23.2361 16.405 22.5745 17.8936 21.56 19.2609C20.5456 20.6282 19.2334 21.7309 17.6235 22.5689C16.0356 23.3849 14.2493 23.7929 12.2645 23.7929C10.0371 23.7929 8.01916 23.2967 6.21077 22.3043C5.50462 21.9033 4.85705 21.4419 4.26807 20.9203L6.68803 16.9576Z" fill="#4D86FF"/>
<path fill-rule="evenodd" clip-rule="evenodd" d="M7.28098 6.41831C7.66938 6.02322 8.1066 5.68391 8.59263 5.40039C9.6512 4.78289 10.8641 4.47414 12.2315 4.47414C13.4665 4.47414 14.5471 4.72776 15.4733 5.23499C16.3996 5.74222 17.1273 6.48101 17.6566 7.45137H22.9825C22.2548 5.1578 20.9316 3.38249 19.0129 2.12544C17.0943 0.846339 14.8338 0.206787 12.2315 0.206787C10.0261 0.206787 8.01924 0.714019 6.21085 1.72848C5.62988 2.05124 5.08857 2.41715 4.58691 2.82622L7.28098 6.41831Z" fill="#E50000"/>
<path fill-rule="evenodd" clip-rule="evenodd" d="M6.48492 16.6713C6.35235 16.4743 6.22798 16.2679 6.11181 16.0521C5.51636 14.9053 5.21864 13.5601 5.21864 12.0163C5.21864 10.5167 5.51636 9.19347 6.11181 8.04669C6.68756 6.93783 7.47981 6.0764 8.48857 5.4624L6.8198 1.40967C6.61444 1.50966 6.41153 1.61589 6.21105 1.72836C4.42471 2.72076 3.01329 4.12116 1.97677 5.92955C0.962309 7.71589 0.455078 9.74481 0.455078 12.0163C0.455078 14.2878 0.962309 16.3168 1.97677 18.1031C2.10133 18.3178 2.23131 18.5269 2.3667 18.7304L6.48492 16.6713Z" fill="#FBBC05"/>
<path fill-rule="evenodd" clip-rule="evenodd" d="M19.3119 21.5128C18.7912 21.9022 18.2286 22.2542 17.624 22.569C16.0361 23.3849 14.2498 23.7929 12.265 23.7929C10.0376 23.7929 8.01969 23.2967 6.2113 22.3043C4.42497 21.2899 3.01354 19.8895 1.97703 18.1031C1.45773 17.1887 1.07134 16.2107 0.817871 15.1692L5.21898 12.0625C5.22487 13.5869 5.52256 14.9168 6.11206 16.0521C6.72956 17.1989 7.57862 18.0811 8.65924 18.6986C9.73987 19.3161 10.9969 19.6248 12.4304 19.6248C13.9838 19.6248 15.2893 19.2658 16.3469 18.5478L19.3119 21.5128Z" fill="#34A853"/>
</svg>
