<svg width="22" height="22" viewBox="0 0 22 22" fill="none" xmlns="http://www.w3.org/2000/svg">
<path d="M11 0.5C8.9233 0.5 6.89323 1.11581 5.16652 2.26957C3.4398 3.42332 2.09399 5.0632 1.29927 6.98182C0.504549 8.90045 0.296614 11.0116 0.701759 13.0484C1.1069 15.0852 2.10693 16.9562 3.57538 18.4246C5.04383 19.8931 6.91476 20.8931 8.95156 21.2982C10.9884 21.7034 13.0996 21.4955 15.0182 20.7007C16.9368 19.906 18.5767 18.5602 19.7304 16.8335C20.8842 15.1068 21.5 13.0767 21.5 11C21.5 8.21523 20.3938 5.54451 18.4246 3.57538C16.4555 1.60625 13.7848 0.5 11 0.5ZM11 17.75C10.7775 17.75 10.56 17.684 10.375 17.5604C10.19 17.4368 10.0458 17.2611 9.96064 17.0555C9.87549 16.85 9.85321 16.6238 9.89662 16.4055C9.94003 16.1873 10.0472 15.9868 10.2045 15.8295C10.3618 15.6722 10.5623 15.565 10.7805 15.5216C10.9988 15.4782 11.225 15.5005 11.4305 15.5856C11.6361 15.6708 11.8118 15.815 11.9354 16C12.059 16.185 12.125 16.4025 12.125 16.625C12.125 16.9234 12.0065 17.2095 11.7955 17.4205C11.5845 17.6315 11.2984 17.75 11 17.75ZM11.8565 11.9345V13.8102H10.169V10.25H11.7628C12.2355 10.25 12.6888 10.0622 13.0231 9.72795C13.3573 9.39369 13.5451 8.94034 13.5451 8.46762C13.5451 7.99491 13.3573 7.54156 13.0231 7.2073C12.6888 6.87304 12.2355 6.68525 11.7628 6.68525H10.6378C10.1655 6.68585 9.7128 6.8737 9.37888 7.20762C9.04496 7.54154 8.8571 7.99427 8.85651 8.4665V8.945H7.16901V8.4665C7.1702 7.5471 7.53611 6.66574 8.18643 6.01584C8.83675 5.36593 9.71836 5.0006 10.6378 5H11.7628C12.673 5.00208 13.546 5.36197 14.1933 6.00201C14.8405 6.64205 15.2102 7.51092 15.2225 8.42111C15.2348 9.3313 14.8888 10.2098 14.259 10.8671C13.6293 11.5245 12.7664 11.9078 11.8565 11.9345Z" fill="#FA1F51"/>
</svg>
