<svg width="22" height="23" viewBox="0 0 22 23" fill="none" xmlns="http://www.w3.org/2000/svg">
<path d="M21 11.704V13.225C21 17.125 21 19.076 19.828 20.288C18.657 21.5 16.771 21.5 13 21.5H9C5.229 21.5 3.343 21.5 2.172 20.288C1 19.076 1 17.126 1 13.225V11.704C1 9.415 1 8.271 1.52 7.323C2.038 6.374 2.987 5.786 4.884 4.608L6.884 3.367C8.889 2.122 9.892 1.5 11 1.5C12.108 1.5 13.11 2.122 15.116 3.367L17.116 4.608C19.013 5.786 19.962 6.374 20.481 7.323" stroke="#3287FF" stroke-width="1.5" stroke-linecap="round"/>
</svg>
