<svg width="16" height="20" viewBox="0 0 16 20" fill="none" xmlns="http://www.w3.org/2000/svg">
<path d="M8.00067 0C4.08867 0 0.878906 3.19992 0.878906 7.10304C0.878906 8.60352 1.35579 10.0013 2.16099 11.1506L6.77715 19.1306L6.79683 19.1563C6.97899 19.3942 7.15683 19.5818 7.36563 19.7198C7.57443 19.8581 7.83363 19.9406 8.08803 19.9152C8.59635 19.8643 8.90763 19.5053 9.20307 19.105L9.21891 19.0843L14.3151 10.4105L14.3179 10.405C14.4375 10.189 14.5258 9.96912 14.6007 9.75504C14.9444 8.91313 15.1213 8.01243 15.1215 7.10304C15.1215 3.19992 11.9127 0 8.00067 0ZM8.00067 4.0908C9.69771 4.0908 11.0223 5.41296 11.0223 7.1028C11.0223 8.79312 9.69771 10.1148 8.00067 10.1148C6.30339 10.1148 4.97811 8.79288 4.97811 7.1028C4.97811 5.4132 6.30363 4.0908 8.00067 4.0908Z" fill="#4285F4"/>
</svg>
