<svg width="21" height="18" viewBox="0 0 21 18" fill="none" xmlns="http://www.w3.org/2000/svg">
<g clip-path="url(#clip0_1002_3441)">
<path d="M3.81777 17.081V16.0006C3.81777 15.5863 3.5656 15.3163 3.13338 15.3163C2.91731 15.3163 2.68319 15.3883 2.5211 15.6224C2.3951 15.4243 2.21504 15.3163 1.94491 15.3163C1.76477 15.3163 1.58479 15.3702 1.44066 15.5683V15.3523H1.0625V17.081H1.44066V16.1266C1.44066 15.8205 1.60276 15.6764 1.85492 15.6764C2.10692 15.6764 2.23309 15.8385 2.23309 16.1266V17.081H2.61125V16.1266C2.61125 15.8205 2.79123 15.6764 3.02534 15.6764C3.27751 15.6764 3.40351 15.8385 3.40351 16.1266V17.081H3.81777ZM9.41812 15.3523H8.80592V14.8301H8.42776V15.3523H8.08561V15.6943H8.42768V16.4868C8.42768 16.883 8.58977 17.117 9.02199 17.117C9.18409 17.117 9.36406 17.063 9.49023 16.991L9.38211 16.6668C9.27407 16.7388 9.14807 16.7569 9.058 16.7569C8.87794 16.7569 8.80592 16.6489 8.80592 16.4687V15.6943H9.41812V15.3523ZM12.6236 15.3162C12.4075 15.3162 12.2635 15.4243 12.1734 15.5683V15.3523H11.7952V17.081H12.1734V16.1086C12.1734 15.8205 12.2994 15.6584 12.5335 15.6584C12.6055 15.6584 12.6956 15.6765 12.7676 15.6944L12.8757 15.3343C12.8036 15.3163 12.6956 15.3163 12.6236 15.3163V15.3162ZM7.77946 15.4963C7.59932 15.3702 7.34724 15.3163 7.07711 15.3163C6.64497 15.3163 6.35688 15.5323 6.35688 15.8745C6.35688 16.1627 6.57295 16.3247 6.95111 16.3787L7.13117 16.3968C7.32928 16.4327 7.43731 16.4868 7.43731 16.5768C7.43731 16.7028 7.29327 16.7929 7.0411 16.7929C6.78902 16.7929 6.59091 16.7028 6.46483 16.6128L6.28477 16.9009C6.48288 17.045 6.75301 17.117 7.02306 17.117C7.5273 17.117 7.81548 16.883 7.81548 16.5588C7.81548 16.2526 7.58136 16.0906 7.22116 16.0366L7.0411 16.0185C6.87901 16.0005 6.75301 15.9646 6.75301 15.8565C6.75301 15.7304 6.87901 15.6584 7.07711 15.6584C7.29327 15.6584 7.50934 15.7484 7.61737 15.8025L7.77946 15.4963ZM17.8279 15.3163C17.6117 15.3163 17.4677 15.4243 17.3776 15.5683V15.3523H16.9994V17.081H17.3776V16.1086C17.3776 15.8205 17.5037 15.6584 17.7377 15.6584C17.8098 15.6584 17.8999 15.6765 17.9719 15.6944L18.08 15.3343C18.0079 15.3163 17.8999 15.3163 17.8279 15.3163ZM13.0017 16.2166C13.0017 16.7388 13.3619 17.117 13.9202 17.117C14.1722 17.117 14.3523 17.063 14.5324 16.919L14.3523 16.6128C14.2083 16.7209 14.0642 16.7749 13.9021 16.7749C13.596 16.7749 13.3799 16.5588 13.3799 16.2166C13.3799 15.8925 13.596 15.6764 13.9021 15.6584C14.0642 15.6584 14.2083 15.7124 14.3523 15.8205L14.5324 15.5144C14.3523 15.3702 14.1722 15.3163 13.9202 15.3163C13.3619 15.3163 13.0017 15.6944 13.0017 16.2166ZM16.4953 16.2166V15.3523H16.1171V15.5683C15.991 15.4063 15.811 15.3163 15.5769 15.3163C15.0907 15.3163 14.7125 15.6944 14.7125 16.2166C14.7125 16.7388 15.0907 17.117 15.5769 17.117C15.8289 17.117 16.0091 17.027 16.1171 16.8649V17.081H16.4953V16.2166ZM15.1086 16.2166C15.1086 15.9105 15.3067 15.6584 15.6308 15.6584C15.937 15.6584 16.1531 15.8925 16.1531 16.2166C16.1531 16.5228 15.937 16.7749 15.6308 16.7749C15.3067 16.7568 15.1086 16.5228 15.1086 16.2166ZM10.5887 15.3163C10.0845 15.3163 9.72426 15.6764 9.72426 16.2166C9.72426 16.7569 10.0844 17.117 10.6067 17.117C10.8588 17.117 11.1109 17.045 11.309 16.883L11.1289 16.6128C10.9848 16.7209 10.8048 16.7929 10.6247 16.7929C10.3906 16.7929 10.1565 16.6849 10.1024 16.3786H11.381V16.2347C11.3991 15.6764 11.0749 15.3163 10.5886 15.3163H10.5887ZM10.5887 15.6404C10.8227 15.6404 10.9849 15.7845 11.0208 16.0546H10.1205C10.1565 15.8205 10.3186 15.6404 10.5887 15.6404ZM19.9708 16.2166V14.668H19.5926V15.5683C19.4665 15.4063 19.2865 15.3163 19.0524 15.3163C18.5662 15.3163 18.188 15.6944 18.188 16.2166C18.188 16.7388 18.5662 17.117 19.0524 17.117C19.3045 17.117 19.4846 17.027 19.5926 16.8649V17.081H19.9708V16.2166ZM18.5842 16.2166C18.5842 15.9105 18.7822 15.6584 19.1064 15.6584C19.4126 15.6584 19.6286 15.8925 19.6286 16.2166C19.6286 16.5228 19.4126 16.7749 19.1064 16.7749C18.7822 16.7568 18.5842 16.5228 18.5842 16.2166ZM5.94262 16.2166V15.3523H5.56446V15.5683C5.43837 15.4063 5.25832 15.3163 5.0242 15.3163C4.538 15.3163 4.15984 15.6944 4.15984 16.2166C4.15984 16.7388 4.538 17.117 5.0242 17.117C5.27636 17.117 5.45642 17.027 5.56446 16.8649V17.081H5.94262V16.2166ZM4.538 16.2166C4.538 15.9105 4.73611 15.6584 5.06021 15.6584C5.36635 15.6584 5.5825 15.8925 5.5825 16.2166C5.5825 16.5228 5.36635 16.7749 5.06021 16.7749C4.73611 16.7568 4.538 16.5228 4.538 16.2166Z" fill="#090F24"/>
<path d="M7.65308 2.22461H13.3255V12.4171H7.65308V2.22461Z" fill="#FF5F00"/>
<path d="M8.01355 7.32074C8.01355 5.24986 8.98595 3.41302 10.4806 2.22446C9.38216 1.3601 7.99559 0.837891 6.48293 0.837891C2.89923 0.837891 0 3.73712 0 7.32074C0 10.9043 2.89923 13.8036 6.48285 13.8036C7.9955 13.8036 9.38208 13.2814 10.4806 12.4169C8.98595 11.2464 8.01355 9.39162 8.01355 7.32074Z" fill="#EB001B"/>
<path d="M20.9788 7.32074C20.9788 10.9043 18.0796 13.8036 14.496 13.8036C12.9833 13.8036 11.5968 13.2814 10.4983 12.4169C12.0109 11.2285 12.9654 9.39162 12.9654 7.32074C12.9654 5.24986 11.9929 3.41302 10.4983 2.22446C11.5967 1.3601 12.9833 0.837891 14.496 0.837891C18.0796 0.837891 20.9789 3.75517 20.9789 7.32074H20.9788Z" fill="#F79E1B"/>
</g>
<defs>
<clipPath id="clip0_1002_3441">
<rect width="21" height="16.3242" fill="white" transform="translate(0 0.837891)"/>
</clipPath>
</defs>
</svg>
