<svg width="22" height="21" viewBox="0 0 22 21" fill="none" xmlns="http://www.w3.org/2000/svg">
<path d="M9.87513 10.5C9.87513 10.7984 9.99366 11.0845 10.2046 11.2955C10.4156 11.5065 10.7018 11.625 11.0001 11.625C11.2985 11.625 11.5846 11.5065 11.7956 11.2955C12.0066 11.0845 12.1251 10.7984 12.1251 10.5C12.1251 10.2016 12.0066 9.91548 11.7956 9.7045C11.5846 9.49353 11.2985 9.375 11.0001 9.375C10.7018 9.375 10.4156 9.49353 10.2046 9.7045C9.99366 9.91548 9.87513 10.2016 9.87513 10.5ZM14.5626 10.5C14.5626 10.7984 14.6812 11.0845 14.8921 11.2955C15.1031 11.5065 15.3893 11.625 15.6876 11.625C15.986 11.625 16.2721 11.5065 16.4831 11.2955C16.6941 11.0845 16.8126 10.7984 16.8126 10.5C16.8126 10.2016 16.6941 9.91548 16.4831 9.7045C16.2721 9.49353 15.986 9.375 15.6876 9.375C15.3893 9.375 15.1031 9.49353 14.8921 9.7045C14.6812 9.91548 14.5626 10.2016 14.5626 10.5ZM5.18763 10.5C5.18763 10.7984 5.30616 11.0845 5.51714 11.2955C5.72812 11.5065 6.01426 11.625 6.31263 11.625C6.611 11.625 6.89715 11.5065 7.10813 11.2955C7.31911 11.0845 7.43763 10.7984 7.43763 10.5C7.43763 10.2016 7.31911 9.91548 7.10813 9.7045C6.89715 9.49353 6.611 9.375 6.31263 9.375C6.01426 9.375 5.72812 9.49353 5.51714 9.7045C5.30616 9.91548 5.18763 10.2016 5.18763 10.5ZM20.6845 6.43125C20.1548 5.17266 19.3954 4.04297 18.4275 3.07266C17.4663 2.10796 16.3252 1.34114 15.0689 0.815625C13.7798 0.274219 12.4111 0 11.0001 0H10.9533C9.53295 0.00703125 8.15716 0.288281 6.86341 0.841406C5.61785 1.37232 4.48747 2.14049 3.53529 3.10312C2.5767 4.07109 1.82435 5.19609 1.30404 6.45C0.764977 7.74844 0.493102 9.12891 0.500133 10.5492C0.508086 12.1769 0.893161 13.7806 1.62513 15.2344V18.7969C1.62513 19.0828 1.73872 19.357 1.94091 19.5592C2.1431 19.7614 2.41732 19.875 2.70326 19.875H6.2681C7.72192 20.607 9.32559 20.992 10.9533 21H11.0025C12.4064 21 13.7681 20.7281 15.0501 20.1961C16.3001 19.6768 17.4369 18.919 18.397 17.9648C19.365 17.0063 20.1267 15.8859 20.6587 14.6367C21.2119 13.343 21.4931 11.9672 21.5001 10.5469C21.5072 9.11953 21.2306 7.73438 20.6845 6.43125ZM17.1431 16.6969C15.5001 18.3234 13.3204 19.2188 11.0001 19.2188H10.9603C9.54701 19.2117 8.1431 18.8602 6.90326 18.1992L6.70638 18.0938H3.40638V14.7938L3.30091 14.5969C2.63998 13.357 2.28841 11.9531 2.28138 10.5398C2.27201 8.20312 3.16498 6.00937 4.80326 4.35703C6.4392 2.70469 8.62591 1.79062 10.9626 1.78125H11.0025C12.1744 1.78125 13.3111 2.00859 14.3822 2.45859C15.4275 2.89687 16.365 3.52734 17.1712 4.33359C17.9751 5.1375 18.6079 6.07734 19.0462 7.12266C19.5009 8.20547 19.7283 9.35391 19.7236 10.5398C19.7095 12.8742 18.7931 15.0609 17.1431 16.6969Z" fill="#B5BBCF"/>
</svg>
