<svg width="19" height="18" viewBox="0 0 19 18" fill="none" xmlns="http://www.w3.org/2000/svg">
<path d="M3.74707 0.999979H7.21107C7.40109 1.00004 7.58401 1.07222 7.72286 1.20195C7.86171 1.33168 7.94615 1.50928 7.9591 1.69886C7.97205 1.88844 7.91256 2.07587 7.79264 2.22328C7.67272 2.37068 7.50132 2.46708 7.31307 2.49298L7.21107 2.49998H3.74707C3.17711 2.49989 2.62835 2.71612 2.21164 3.10498C1.79493 3.49385 1.54133 4.02637 1.50207 4.59498L1.49707 4.74998V14.25C1.49725 14.8199 1.71373 15.3686 2.10278 15.7851C2.49183 16.2016 3.02445 16.455 3.59307 16.494L3.74707 16.5H13.2471C13.8174 16.5003 14.3665 16.284 14.7835 15.895C15.2004 15.5059 15.454 14.9729 15.4931 14.404L15.4981 14.25V13.752C15.4981 13.562 15.5703 13.379 15.7 13.2402C15.8298 13.1013 16.0074 13.0169 16.197 13.004C16.3865 12.991 16.574 13.0505 16.7214 13.1704C16.8688 13.2903 16.9652 13.4617 16.9911 13.65L16.9981 13.752V14.25C16.9979 15.21 16.6295 16.1333 15.9689 16.8299C15.3083 17.5264 14.4057 17.943 13.4471 17.994L13.2471 18H3.74707C2.78691 18.0001 1.8633 17.6318 1.16656 16.9712C0.469812 16.3105 0.053023 15.4078 0.00207043 14.449L-0.00292969 14.249V4.74898C-0.00276002 3.78915 0.365443 2.86593 1.02586 2.16943C1.68627 1.47293 2.58861 1.05617 3.54707 1.00498L3.74707 0.999979ZM11.5011 3.51998V0.749979C11.501 0.612024 11.5389 0.476719 11.6108 0.358946C11.6826 0.241174 11.7856 0.145497 11.9083 0.0824416C12.031 0.0193858 12.1687 -0.00860595 12.3063 0.00154522C12.4438 0.0116964 12.576 0.0595972 12.6881 0.139979L12.7701 0.207979L18.7651 5.95798C19.0451 6.22698 19.0701 6.65798 18.8411 6.95598L18.7651 7.04098L12.7701 12.793C12.6705 12.8886 12.5465 12.9549 12.4118 12.9845C12.277 13.0142 12.1366 13.0061 12.0061 12.9611C11.8757 12.9161 11.7601 12.836 11.6723 12.7296C11.5844 12.6232 11.5276 12.4946 11.5081 12.358L11.5011 12.251V9.52598L11.1581 9.55598C8.75807 9.80598 6.45807 10.887 4.24307 12.816C3.72307 13.269 2.92107 12.841 3.00607 12.158C3.67107 6.83798 6.45307 3.90698 11.2021 3.53898L11.5021 3.51898L11.5011 3.51998ZM13.0011 2.50798V4.24998C13.0011 4.44889 12.9221 4.63966 12.7814 4.78031C12.6407 4.92096 12.45 4.99998 12.2511 4.99998C8.37807 4.99998 5.97707 6.67598 4.94007 10.157L4.86007 10.435L5.21307 10.198C7.44907 8.73698 9.79907 7.99998 12.2501 7.99998C12.4315 8.00002 12.6067 8.06579 12.7433 8.18512C12.8799 8.30445 12.9686 8.46924 12.9931 8.64898L13.0001 8.74998V10.493L17.1621 6.49998L13.0021 2.50798H13.0011Z" fill="#1E2644"/>
</svg>
