<svg width="19" height="19" viewBox="0 0 19 19" fill="none" xmlns="http://www.w3.org/2000/svg">
<path d="M1.5 15.5C1.5 14.4391 1.92143 13.4217 2.67157 12.6716C3.42172 11.9214 4.43913 11.5 5.5 11.5H13.5C14.5609 11.5 15.5783 11.9214 16.3284 12.6716C17.0786 13.4217 17.5 14.4391 17.5 15.5C17.5 16.0304 17.2893 16.5391 16.9142 16.9142C16.5391 17.2893 16.0304 17.5 15.5 17.5H3.5C2.96957 17.5 2.46086 17.2893 2.08579 16.9142C1.71071 16.5391 1.5 16.0304 1.5 15.5Z" stroke="#B5BBCF" stroke-width="2.5" stroke-linejoin="round"/>
<path d="M9.5 7.5C11.1569 7.5 12.5 6.15685 12.5 4.5C12.5 2.84315 11.1569 1.5 9.5 1.5C7.84315 1.5 6.5 2.84315 6.5 4.5C6.5 6.15685 7.84315 7.5 9.5 7.5Z" stroke="#B5BBCF" stroke-width="2.5"/>
</svg>
