<svg width="18" height="22" viewBox="0 0 18 22" fill="none" xmlns="http://www.w3.org/2000/svg">
<path d="M12.75 8H14.625C15.1223 8 15.5992 8.19754 15.9508 8.54917C16.3025 8.90081 16.5 9.37772 16.5 9.875V18.875C16.5 19.3723 16.3025 19.8492 15.9508 20.2008C15.5992 20.5525 15.1223 20.75 14.625 20.75H3.375C2.87772 20.75 2.40081 20.5525 2.04917 20.2008C1.69754 19.8492 1.5 19.3723 1.5 18.875V9.875C1.5 9.37772 1.69754 8.90081 2.04917 8.54917C2.40081 8.19754 2.87772 8 3.375 8H5.25M12.75 5L9 1.25M9 1.25L5.25 5M9 1.25V14.0469" stroke="#1E2644" stroke-width="2" stroke-linecap="round" stroke-linejoin="round"/>
</svg>
