<svg width="18" height="22" viewBox="0 0 18 22" fill="none" xmlns="http://www.w3.org/2000/svg">
<g clip-path="url(#clip0_1002_3429)">
<path d="M15.7346 4.76601C15.7205 4.66335 15.6305 4.60654 15.5562 4.60028C15.0082 4.5591 14.4602 4.51825 13.9121 4.47773C13.9121 4.47773 12.8218 3.39527 12.7021 3.27545C12.5824 3.15571 12.3485 3.19213 12.2577 3.21885C12.2444 3.22279 12.0195 3.29219 11.6476 3.40729C11.2833 2.35921 10.6405 1.39607 9.50971 1.39607C9.47849 1.39607 9.44635 1.39734 9.41422 1.39916C9.09261 0.973844 8.69422 0.789062 8.35011 0.789062C5.71585 0.789062 4.45733 4.08215 4.06274 5.75559C3.03913 6.07277 2.31195 6.29826 2.21907 6.32744C1.64771 6.50666 1.62964 6.52466 1.55462 7.06305C1.49816 7.47065 0.00317383 19.0321 0.00317383 19.0321L11.6524 21.2147L17.9644 19.8492C17.9644 19.8492 15.7486 4.86866 15.7347 4.76601H15.7346ZM11.0037 3.60641L10.018 3.9115C10.0183 3.84203 10.0187 3.77369 10.0187 3.69895C10.0187 3.04757 9.92828 2.52311 9.78322 2.10735C10.3659 2.18048 10.754 2.84345 11.0037 3.60641ZM9.06041 2.23652C9.22241 2.64243 9.32774 3.22497 9.32774 4.01106C9.32774 4.05128 9.32738 4.08805 9.32703 4.12525C8.68599 4.32381 7.98941 4.53939 7.29128 4.75567C7.68327 3.24283 8.41803 2.51214 9.06041 2.23652ZM8.27776 1.49563C8.39145 1.49563 8.50599 1.53423 8.61561 1.60968C7.77137 2.00695 6.86645 3.00749 6.4843 5.00556L4.87513 5.50394C5.32274 3.97991 6.38558 1.49563 8.27769 1.49563H8.27776Z" fill="#95BF46"/>
<path d="M15.5561 4.60034C15.0081 4.55916 14.46 4.51831 13.912 4.47779C13.912 4.47779 12.8216 3.39533 12.702 3.27552C12.6572 3.23094 12.5968 3.20809 12.5336 3.19824L11.6528 21.2146L17.9642 19.8493C17.9642 19.8493 15.7484 4.86873 15.7345 4.76607C15.7203 4.66341 15.6304 4.6066 15.5561 4.60034Z" fill="#5E8E3E"/>
<path d="M9.50929 8.08797L8.731 10.4031C8.731 10.4031 8.04911 10.0391 7.21323 10.0391C5.98783 10.0391 5.92616 10.8082 5.92616 11.0019C5.92616 12.0593 8.68241 12.4644 8.68241 14.9411C8.68241 16.8897 7.44653 18.1444 5.78012 18.1444C3.78044 18.1444 2.75781 16.8999 2.75781 16.8999L3.29324 15.1308C3.29324 15.1308 4.34441 16.0333 5.23141 16.0333C5.81099 16.0333 6.04675 15.577 6.04675 15.2435C6.04675 13.8643 3.7855 13.8028 3.7855 11.5364C3.7855 9.62887 5.15462 7.78296 7.91833 7.78296C8.98321 7.78296 9.50929 8.08797 9.50929 8.08797Z" fill="white"/>
</g>
<defs>
<clipPath id="clip0_1002_3429">
<rect width="18" height="20.5312" fill="white" transform="translate(0 0.734375)"/>
</clipPath>
</defs>
</svg>
