<svg width="22" height="20" viewBox="0 0 22 20" fill="none" xmlns="http://www.w3.org/2000/svg">
<path d="M9.92023 0.868011C10.0303 0.67917 10.1879 0.522485 10.3774 0.413584C10.5669 0.304684 10.7817 0.247375 11.0002 0.247375C11.2188 0.247375 11.4335 0.304684 11.623 0.413584C11.8125 0.522485 11.9702 0.67917 12.0802 0.868011L14.8752 5.66601L20.3032 6.84201C20.5167 6.88841 20.7144 6.98996 20.8764 7.13654C21.0384 7.28313 21.1592 7.46962 21.2267 7.67743C21.2942 7.88525 21.306 8.10712 21.261 8.32093C21.216 8.53474 21.1157 8.73302 20.9702 8.89601L17.2702 13.037L17.8302 18.562C17.8523 18.7796 17.817 18.9991 17.7277 19.1987C17.6384 19.3983 17.4983 19.571 17.3214 19.6996C17.1444 19.8281 16.9369 19.908 16.7195 19.9312C16.502 19.9545 16.2823 19.9203 16.0822 19.832L11.0002 17.592L5.91823 19.832C5.71815 19.9203 5.49842 19.9545 5.28098 19.9312C5.06355 19.908 4.85601 19.8281 4.6791 19.6996C4.50219 19.571 4.36209 19.3983 4.2728 19.1987C4.1835 18.9991 4.14814 18.7796 4.17023 18.562L4.73023 13.037L1.03023 8.89701C0.884457 8.73404 0.783985 8.53568 0.738843 8.32173C0.693701 8.10778 0.70547 7.88574 0.772973 7.67777C0.840476 7.46979 0.961353 7.28316 1.12354 7.13651C1.28572 6.98986 1.48353 6.88831 1.69723 6.84201L7.12523 5.66601L9.92023 0.868011Z" fill="#FFCC39"/>
</svg>
