<svg width="22" height="31" viewBox="0 0 22 31" fill="none" xmlns="http://www.w3.org/2000/svg">
<path fill-rule="evenodd" clip-rule="evenodd" d="M22 13.5883C22 8.63757 18.7294 4.45071 14.231 3.07049C14.1452 1.36027 12.7314 0 10.9998 0C9.26828 0 7.85443 1.36032 7.76867 3.07059C3.27043 4.45091 0 8.63769 0 13.5883V21.3642C0 23.1448 1.4435 24.5883 3.22414 24.5883H18.7759C20.5565 24.5883 22 23.1448 22 21.3642V13.5883ZM10.9994 30.8001C12.7862 30.8001 14.2347 29.3516 14.2347 27.5648V27.4867C14.2347 27.1725 13.98 26.9177 13.6658 26.9177H8.3331C8.01887 26.9177 7.76414 27.1725 7.76414 27.4867V27.5648C7.76414 29.3516 9.21263 30.8001 10.9994 30.8001Z" fill="#3287FF"/>
</svg>
